# xmcd
#
# Track frame offsets: 
#        183
#        23645
#        43020
#        56540
#        69303
#        86433
#        107408
#        119895
#        130683
#        149408
#        168033
#        184608
#        198173
#        213033
#        228183
#        244820
#
# Disc length: 3505 seconds
#
# Revision: 4
# Processed by: cddbd v1.5.2PL0 Copyright (c) Steve Scherf et al.
# Submitted via: ExactAudioCopyFreeDBPlugin 1.0
#
DISCID=ce0daf10
DTITLE=The Jonny Thompson Singers - Oh, Happy Day
DYEAR=1989
DGENRE=Gospel
TTITLE0=Oh Happy Day
TTITLE1=We Shall Overcome
TTITLE2=Old Time Religion
TTITLE3=Be Still My Soul
TTITLE4=Precious Lord - Amazing Grace
TTITLE5=Hold To Your Testimony
TTITLE6=Jesus Is Gone Away
TTITLE7=Lord Send Your Power
TTITLE8=We Have Become Good Friends
TTITLE9=Oh Lord I Am Grateful
TTITLE10=That Will Make Me Happy
TTITLE11=God Keeps On Proving Himself
TTITLE12=Couldn't Hear Nobody Pray
TTITLE13=Steal Away
TTITLE14=Will The Circle Be Unbroken
TTITLE15=Blowing In The Wind
EXTD=YEAR: 1989 ID3G:  38
EXTT0=
EXTT1=
EXTT2=
EXTT3=
EXTT4=
EXTT5=
EXTT6=
EXTT7=
EXTT8=
EXTT9=
EXTT10=
EXTT11=
EXTT12=
EXTT13=
EXTT14=
EXTT15=
PLAYORDER=
